<?xml version="1.0" encoding="UTF-8" standalone="no"?>
<!-- Created with Inkscape (http://www.inkscape.org/) -->

<svg
   xmlns:dc="http://purl.org/dc/elements/1.1/"
   xmlns:cc="http://creativecommons.org/ns#"
   xmlns:rdf="http://www.w3.org/1999/02/22-rdf-syntax-ns#"
   xmlns:svg="http://www.w3.org/2000/svg"
   xmlns="http://www.w3.org/2000/svg"
   xmlns:sodipodi="http://sodipodi.sourceforge.net/DTD/sodipodi-0.dtd"
   xmlns:inkscape="http://www.inkscape.org/namespaces/inkscape"
   width="1000"
   height="1000"
   viewBox="0 0 264.58333 264.58334"
   version="1.1"
   id="svg8"
   inkscape:version="0.92.4 (5da689c313, 2019-01-14)"
   sodipodi:docname="a.svg">
  <defs
     id="defs2" />
  <sodipodi:namedview
     id="base"
     pagecolor="#ffffff"
     bordercolor="#666666"
     borderopacity="1.0"
     inkscape:pageopacity="0.0"
     inkscape:pageshadow="2"
     inkscape:zoom="0.35"
     inkscape:cx="1067.2781"
     inkscape:cy="422.99236"
     inkscape:document-units="px"
     inkscape:current-layer="layer1"
     showgrid="false"
     units="px"
     inkscape:window-width="1920"
     inkscape:window-height="1017"
     inkscape:window-x="1912"
     inkscape:window-y="-8"
     inkscape:window-maximized="1"
     fit-margin-top="0"
     fit-margin-left="0"
     fit-margin-right="0"
     fit-margin-bottom="0" />
  <metadata
     id="metadata5">
    <rdf:RDF>
      <cc:Work
         rdf:about="">
        <dc:format>image/svg+xml</dc:format>
        <dc:type
           rdf:resource="http://purl.org/dc/dcmitype/StillImage" />
        <dc:title></dc:title>
      </cc:Work>
    </rdf:RDF>
  </metadata>
  <g
     inkscape:label="Layer 1"
     inkscape:groupmode="layer"
     id="layer1"
     transform="translate(129.30363,242.71423)">
    <g
       id="g222"
       transform="matrix(2.5672747,0,0,-2.5672747,-49.201322,-2.4132033)">
      <path
         d="m 0,0 1.286,-0.527 0.796,0.91 2.077,-0.85 -0.08,-1.204 0.023,-0.011 0.014,0.033 0.035,-0.002 -0.035,0.002 -0.014,-0.033 1.264,-0.517 0.269,6.951 -0.96,0.392 z M 4.256,0.715 2.86,1.288 4.407,3.039 Z"
         style="fill:#004899;fill-opacity:1;fill-rule:nonzero;stroke:none"
         id="path224"
         inkscape:connector-curvature="0" />
    </g>
    <g
       id="g226"
       transform="matrix(2.5672747,0,0,-2.5672747,-22.377723,-10.619001)">
      <path
         d="m 0,0 -1.295,0.309 -1.516,-6.353 0.034,-0.007 4.112,-0.984 0.278,1.165 -2.851,0.68 z"
         style="fill:#004899;fill-opacity:1;fill-rule:nonzero;stroke:none"
         id="path228"
         inkscape:connector-curvature="0" />
    </g>
    <g
       id="g230"
       transform="matrix(2.5672747,0,0,-2.5672747,0.51081328,-2.5813748)">
      <path
         d="m 0,0 c 0.005,0.068 0.008,0.135 0.008,0.198 0,0.475 -0.145,0.873 -0.436,1.191 -0.332,0.361 -0.817,0.566 -1.45,0.615 l -2.623,0.208 -0.517,-6.51 2.732,-0.217 c 0.081,-0.006 0.161,-0.009 0.24,-0.009 h 0.005 c 0.49,0 0.907,0.131 1.247,0.392 0.397,0.302 0.618,0.755 0.665,1.347 0.004,0.067 0.007,0.128 0.007,0.188 0,0.307 -0.066,0.57 -0.201,0.783 -0.146,0.228 -0.325,0.411 -0.536,0.545 0.189,0.088 0.368,0.232 0.537,0.433 C -0.134,-0.612 -0.026,-0.331 0,0 m -1.451,-2.617 c -0.018,-0.221 -0.102,-0.394 -0.252,-0.528 -0.128,-0.113 -0.296,-0.172 -0.511,-0.173 -0.035,0 -0.069,0.002 -0.104,0.005 l -1.278,0.101 0.121,1.513 1.277,-0.101 c 0.265,-0.022 0.457,-0.108 0.582,-0.258 0.111,-0.133 0.167,-0.293 0.167,-0.48 0,-0.025 -10e-4,-0.052 -0.002,-0.079 m 0.119,2.668 c -0.017,-0.216 -0.099,-0.379 -0.246,-0.497 -0.126,-0.098 -0.291,-0.152 -0.499,-0.152 -0.034,0 -0.07,0.001 -0.108,0.004 l -1.196,0.096 0.113,1.415 1.195,-0.096 C -1.812,0.8 -1.623,0.72 -1.496,0.581 -1.385,0.457 -1.329,0.31 -1.329,0.125 -1.329,0.102 -1.33,0.077 -1.332,0.051"
         style="fill:#004899;fill-opacity:1;fill-rule:nonzero;stroke:none"
         id="path232"
         inkscape:connector-curvature="0" />
    </g>
    <g
       id="g234"
       transform="matrix(2.5672747,0,0,-2.5672747,6.3411065,-7.515161)">
      <path
         d="M 0,0 0.311,-6.524 0.347,-6.523 1.642,-6.46 1.329,0.062 Z"
         style="fill:#004899;fill-opacity:1;fill-rule:nonzero;stroke:none"
         id="path236"
         inkscape:connector-curvature="0" />
    </g>
    <g
       id="g238"
       transform="matrix(2.5672747,0,0,-2.5672747,29.133146,2.0982513)">
      <path
         d="M 0,0 C 0,0.368 -0.06,0.883 -0.177,1.55 -0.302,2.254 -0.43,2.777 -0.562,3.125 -0.696,3.474 -0.935,3.766 -1.274,3.999 -1.551,4.192 -1.843,4.323 -2.148,4.39 -2.307,4.427 -2.472,4.444 -2.643,4.444 -2.803,4.444 -2.969,4.428 -3.141,4.397 -3.496,4.335 -3.807,4.219 -4.073,4.05 -4.34,3.881 -4.571,3.658 -4.764,3.38 -4.993,3.054 -5.112,2.698 -5.12,2.319 -5.121,2.296 -5.121,2.272 -5.121,2.25 c 0,-0.373 0.059,-0.886 0.176,-1.544 0.122,-0.699 0.253,-1.22 0.388,-1.569 0.137,-0.352 0.371,-0.645 0.7,-0.881 0.277,-0.193 0.569,-0.323 0.878,-0.392 0.159,-0.033 0.324,-0.051 0.495,-0.051 0.161,0 0.329,0.016 0.501,0.046 0.356,0.062 0.666,0.178 0.929,0.347 0.264,0.168 0.492,0.391 0.687,0.667 0.238,0.342 0.362,0.701 0.367,1.075 H -0.034 L 0,-0.051 C -0.001,-0.034 0,-0.017 0,0 m -1.33,0.066 c -0.002,-0.124 -0.016,-0.229 -0.038,-0.316 -0.023,-0.086 -0.061,-0.169 -0.111,-0.249 -0.152,-0.254 -0.386,-0.407 -0.711,-0.465 -0.076,-0.013 -0.149,-0.019 -0.219,-0.019 -0.085,0 -0.165,0.008 -0.244,0.025 -0.146,0.035 -0.27,0.096 -0.373,0.183 -0.078,0.06 -0.138,0.123 -0.186,0.193 -0.049,0.072 -0.097,0.169 -0.142,0.29 -0.045,0.123 -0.09,0.277 -0.132,0.465 -0.042,0.189 -0.092,0.444 -0.149,0.764 -0.056,0.322 -0.098,0.58 -0.124,0.774 -0.024,0.183 -0.035,0.335 -0.035,0.458 v 0.023 c 0.002,0.129 0.015,0.236 0.038,0.323 0.023,0.086 0.057,0.166 0.103,0.238 0.069,0.12 0.165,0.219 0.29,0.302 0.125,0.081 0.267,0.137 0.431,0.166 0.077,0.015 0.15,0.021 0.222,0.021 0.23,-10e-4 0.43,-0.072 0.606,-0.212 0.075,-0.059 0.139,-0.125 0.19,-0.198 0.052,-0.075 0.101,-0.169 0.144,-0.285 0.045,-0.116 0.09,-0.27 0.133,-0.464 0.043,-0.195 0.093,-0.45 0.149,-0.765 0.055,-0.31 0.096,-0.565 0.122,-0.765 C -1.343,0.37 -1.33,0.216 -1.33,0.096 Z"
         style="fill:#004899;fill-opacity:1;fill-rule:nonzero;stroke:none"
         id="path240"
         inkscape:connector-curvature="0" />
    </g>
    <g
       id="g242"
       transform="matrix(2.5672747,0,0,-2.5672747,43.719649,-15.610802)">
      <path
         d="m 0,0 -1.253,-0.447 1.304,-3.648 -3.664,2.804 -1.11,-0.397 2.197,-6.15 1.255,0.448 -1.307,3.657 3.666,-2.813 0.016,0.006 1.095,0.391 z"
         style="fill:#004899;fill-opacity:1;fill-rule:nonzero;stroke:none"
         id="path244"
         inkscape:connector-curvature="0" />
    </g>
    <g
       id="g246"
       transform="matrix(2.5672747,0,0,-2.5672747,2.985464,-242.71423)">
      <path
         d="m 0,0 c -28.458,0 -51.529,-23.071 -51.529,-51.53 0,-28.46 23.071,-51.53 51.529,-51.53 28.459,0 51.531,23.07 51.531,51.53 C 51.531,-23.071 28.459,0 0,0 m 0,-101.079 c -27.364,0 -49.547,22.184 -49.547,49.549 0,27.364 22.183,49.548 49.547,49.548 27.366,0 49.549,-22.184 49.549,-49.548 0,-27.365 -22.183,-49.549 -49.549,-49.549"
         style="fill:#004899;fill-opacity:1;fill-rule:nonzero;stroke:none"
         id="path248"
         inkscape:connector-curvature="0" />
    </g>
    <g
       id="g250"
       transform="matrix(2.5672747,0,0,-2.5672747,-81.387573,-171.49623)">
      <path
         d="m 0,0 c 0.013,-0.088 0.019,-0.177 0.019,-0.266 0,-0.4 -0.134,-0.804 -0.398,-1.211 l -1.481,-2.273 -5.348,3.486 1.422,2.183 c 0.343,0.527 0.749,0.853 1.217,0.974 0.132,0.034 0.263,0.051 0.396,0.051 0.335,0 0.67,-0.11 1.001,-0.327 0.273,-0.177 0.462,-0.402 0.566,-0.671 0.079,-0.207 0.119,-0.402 0.119,-0.583 0,-0.029 -10e-4,-0.057 -0.003,-0.084 0.215,0.121 0.456,0.191 0.722,0.211 0.027,0.002 0.054,0.003 0.083,0.003 0.269,0 0.55,-0.096 0.843,-0.286 C -0.356,0.89 -0.072,0.485 0,0 M -2.171,0.252 C -2.359,0.213 -2.525,0.087 -2.669,-0.135 l -0.693,-1.063 1.241,-0.808 0.693,1.063 c 0.11,0.169 0.163,0.327 0.163,0.478 0,0.046 -0.005,0.091 -0.014,0.135 -0.044,0.193 -0.154,0.346 -0.336,0.465 -0.135,0.09 -0.273,0.133 -0.413,0.133 -0.048,0 -0.096,-0.005 -0.142,-0.016 z M -4.38,1.585 C -4.559,1.541 -4.719,1.414 -4.86,1.198 L -5.508,0.203 -4.349,-0.554 -3.7,0.441 c 0.114,0.177 0.17,0.341 0.17,0.494 0,0.035 -0.004,0.069 -0.009,0.103 -0.031,0.183 -0.132,0.329 -0.308,0.446 -0.127,0.081 -0.253,0.122 -0.38,0.122 -0.05,0 -0.102,-0.007 -0.152,-0.021 z"
         style="fill:#004899;fill-opacity:1;fill-rule:nonzero;stroke:none"
         id="path252"
         inkscape:connector-curvature="0" />
    </g>
    <g
       id="g254"
       transform="matrix(2.5672747,0,0,-2.5672747,-88.500202,-186.66548)">
      <path
         d="m 0,0 1.716,1.877 c 0.217,0.237 0.453,0.418 0.707,0.546 0.254,0.125 0.51,0.196 0.767,0.21 0.033,10e-4 0.065,0.003 0.098,0.003 0.222,0 0.438,-0.04 0.648,-0.12 C 4.174,2.425 4.394,2.289 4.592,2.106 4.907,1.819 5.097,1.491 5.158,1.128 5.177,1.02 5.185,0.912 5.185,0.807 5.185,0.572 5.141,0.344 5.052,0.122 L 8.042,-0.665 7.026,-1.775 7.011,-1.791 4.311,-1.013 3.742,-1.635 5.6,-3.335 4.709,-4.309 Z M 7.001,-1.751 7.01,-1.718 Z M 3.114,1.345 C 2.897,1.325 2.703,1.221 2.524,1.027 L 1.753,0.185 2.932,-0.893 3.702,-0.05 C 3.88,0.144 3.965,0.347 3.966,0.565 3.965,0.784 3.88,0.97 3.702,1.132 3.543,1.277 3.372,1.348 3.183,1.348 3.16,1.348 3.137,1.347 3.115,1.345 Z"
         style="fill:#004899;fill-opacity:1;fill-rule:nonzero;stroke:none"
         id="path256"
         inkscape:connector-curvature="0" />
    </g>
    <g
       id="g258"
       transform="matrix(2.5672747,0,0,-2.5672747,-75.64861,-199.90415)">
      <path
         d="M 0,0 1.003,0.857 5.151,-3.993 4.175,-4.828 4.148,-4.852 Z m 4.152,-4.803 0.027,0.023 z"
         style="fill:#004899;fill-opacity:1;fill-rule:nonzero;stroke:none"
         id="path260"
         inkscape:connector-curvature="0" />
    </g>
    <g
       id="g262"
       transform="matrix(2.5672747,0,0,-2.5672747,-58.272057,-194.9375)">
      <path
         d="m 0,0 c -0.389,0.08 -0.716,0.251 -0.977,0.512 -0.259,0.257 -0.58,0.675 -0.963,1.251 -0.385,0.577 -0.646,1.035 -0.787,1.377 -0.088,0.219 -0.134,0.447 -0.134,0.684 0,0.134 0.014,0.272 0.045,0.411 0.134,0.651 0.492,1.171 1.068,1.553 0.362,0.241 0.7,0.393 1.015,0.454 0.132,0.026 0.273,0.039 0.421,0.039 0.207,0 0.43,-0.025 0.67,-0.074 L 0.392,6.2 0.136,4.97 0.102,4.977 c -0.205,0.04 -0.38,0.06 -0.527,0.06 C -0.474,5.037 -0.52,5.035 -0.561,5.03 -0.729,5.013 -0.909,4.942 -1.1,4.815 -1.374,4.633 -1.524,4.402 -1.564,4.115 -1.571,4.072 -1.575,4.029 -1.575,3.986 c 0,-0.042 0.003,-0.084 0.01,-0.127 0.013,-0.087 0.043,-0.188 0.091,-0.302 0.048,-0.115 0.121,-0.254 0.219,-0.418 0.099,-0.164 0.236,-0.38 0.413,-0.645 C -0.666,2.229 -0.521,2.021 -0.409,1.868 -0.298,1.717 -0.196,1.594 -0.105,1.5 -0.015,1.406 0.065,1.338 0.137,1.293 0.208,1.25 0.288,1.216 0.38,1.194 0.458,1.174 0.535,1.163 0.612,1.163 0.805,1.163 1,1.228 1.199,1.359 1.482,1.547 1.646,1.794 1.698,2.103 1.705,2.146 1.708,2.189 1.708,2.232 1.708,2.328 1.693,2.427 1.663,2.526 1.617,2.673 1.55,2.814 1.46,2.949 L 1.356,3.104 0.413,2.478 -0.195,3.392 1.847,4.75 2.367,3.967 C 2.627,3.577 2.804,3.232 2.899,2.931 L 2.866,2.919 2.899,2.931 C 2.957,2.748 2.985,2.562 2.985,2.373 2.985,2.251 2.973,2.128 2.949,2.004 2.822,1.329 2.453,0.788 1.848,0.386 1.415,0.098 0.958,-0.046 0.48,-0.046 0.323,-0.046 0.162,-0.03 0,0"
         style="fill:#004899;fill-opacity:1;fill-rule:nonzero;stroke:none"
         id="path264"
         inkscape:connector-curvature="0" />
    </g>
    <g
       id="g266"
       transform="matrix(2.5672747,0,0,-2.5672747,-51.305994,-216.53752)">
      <path
         d="M 0,0 1.202,0.542 2.265,-1.809 4.176,-0.947 3.114,1.404 4.315,1.947 6.944,-3.871 5.773,-4.399 5.741,-4.412 4.653,-2.004 2.742,-2.867 3.83,-5.275 2.627,-5.817 Z m 5.758,-4.367 0.033,0.014 z"
         style="fill:#004899;fill-opacity:1;fill-rule:nonzero;stroke:none"
         id="path268"
         inkscape:connector-curvature="0" />
    </g>
    <g
       id="g270"
       transform="matrix(2.5672747,0,0,-2.5672747,-29.301142,-222.07565)">
      <path
         d="M 0,0 -1.613,-0.443 -1.923,0.686 2.575,1.919 2.885,0.793 1.273,0.35 2.658,-4.675 1.385,-5.024 Z"
         style="fill:#004899;fill-opacity:1;fill-rule:nonzero;stroke:none"
         id="path272"
         inkscape:connector-curvature="0" />
    </g>
    <g
       id="g274"
       transform="matrix(2.5672747,0,0,-2.5672747,-12.963498,-212.43707)">
      <path
         d="m 0,0 c -0.301,0.081 -0.585,0.222 -0.848,0.425 -0.313,0.246 -0.53,0.544 -0.647,0.894 -0.116,0.347 -0.216,0.863 -0.302,1.55 -0.065,0.522 -0.098,0.949 -0.098,1.286 0,0.108 0.004,0.207 0.011,0.296 0.028,0.37 0.164,0.712 0.409,1.02 0.205,0.26 0.445,0.467 0.718,0.618 0.272,0.153 0.587,0.25 0.942,0.293 C 0.31,6.398 0.431,6.406 0.55,6.406 0.766,6.406 0.972,6.38 1.166,6.327 1.464,6.246 1.746,6.104 2.009,5.901 2.333,5.657 2.555,5.361 2.668,5.013 2.781,4.668 2.88,4.15 2.967,3.458 3.033,2.925 3.066,2.492 3.066,2.156 3.066,2.057 3.062,1.968 3.057,1.887 L 3.023,1.889 3.057,1.886 C 3.032,1.521 2.89,1.176 2.636,0.854 2.43,0.595 2.192,0.389 1.923,0.237 1.653,0.086 1.34,-0.011 0.984,-0.055 0.86,-0.07 0.737,-0.079 0.619,-0.079 0.401,-0.079 0.194,-0.052 0,0 M 1.549,4.049 C 1.518,4.241 1.481,4.393 1.443,4.509 1.405,4.625 1.362,4.718 1.315,4.793 1.268,4.867 1.209,4.934 1.137,4.995 0.957,5.154 0.744,5.233 0.491,5.233 0.438,5.233 0.384,5.23 0.329,5.222 0.167,5.203 0.022,5.155 -0.107,5.082 -0.235,5.008 -0.334,4.916 -0.408,4.804 -0.458,4.734 -0.497,4.659 -0.524,4.575 -0.551,4.492 -0.569,4.387 -0.577,4.263 -0.581,4.218 -0.583,4.168 -0.583,4.115 -0.583,4.02 -0.578,3.913 -0.568,3.792 -0.553,3.601 -0.527,3.348 -0.487,3.031 -0.448,2.715 -0.412,2.464 -0.38,2.278 -0.348,2.092 -0.312,1.94 -0.273,1.818 -0.235,1.696 -0.192,1.6 -0.149,1.529 -0.106,1.458 -0.048,1.392 0.023,1.332 0.122,1.24 0.242,1.175 0.384,1.135 0.479,1.109 0.578,1.096 0.683,1.096 0.733,1.096 0.787,1.099 0.84,1.105 1.167,1.146 1.405,1.283 1.569,1.523 1.625,1.599 1.665,1.678 1.692,1.761 1.72,1.845 1.738,1.947 1.747,2.068 1.75,2.111 1.751,2.16 1.751,2.214 1.751,2.309 1.747,2.419 1.737,2.543 1.721,2.741 1.694,2.991 1.656,3.296 1.619,3.606 1.583,3.858 1.549,4.048"
         style="fill:#004899;fill-opacity:1;fill-rule:nonzero;stroke:none"
         id="path276"
         inkscape:connector-curvature="0" />
    </g>
    <g
       id="g278"
       transform="matrix(2.5672747,0,0,-2.5672747,36.584388,-207.53948)">
      <path
         d="M 0,0 -0.262,0.639 -0.273,0.634 v 0 C -0.539,0.54 -0.801,0.479 -1.06,0.45 -1.121,0.443 -1.186,0.441 -1.253,0.443 -1.475,0.449 -1.728,0.499 -2.013,0.592 -2.679,0.81 -3.136,1.14 -3.375,1.581 c -0.141,0.258 -0.207,0.542 -0.199,0.848 0.005,0.217 0.048,0.446 0.127,0.686 0.116,0.353 0.321,0.632 0.615,0.827 0.28,0.189 0.612,0.333 0.99,0.435 -0.102,0.248 -0.179,0.484 -0.225,0.709 -0.022,0.101 -0.032,0.204 -0.029,0.308 0.003,0.144 0.031,0.291 0.079,0.44 0.138,0.423 0.403,0.722 0.787,0.889 0.204,0.089 0.426,0.129 0.666,0.123 C -0.354,6.841 -0.129,6.799 0.109,6.721 0.588,6.564 0.932,6.302 1.132,5.936 1.256,5.71 1.314,5.472 1.308,5.223 1.304,5.07 1.275,4.912 1.224,4.751 1.15,4.526 1.028,4.346 0.861,4.211 0.695,4.078 0.485,3.97 0.235,3.89 0.178,3.871 0.095,3.844 -0.014,3.809 -0.107,3.778 -0.192,3.751 -0.267,3.731 L 0.335,2.276 C 0.58,2.458 0.783,2.761 0.939,3.186 L 0.951,3.217 2.069,2.85 2.056,2.815 C 1.899,2.416 1.721,2.081 1.517,1.807 1.317,1.544 1.082,1.329 0.809,1.166 L 1.504,-0.508 Z M -1.998,3.19 C -2.137,3.09 -2.236,2.946 -2.299,2.756 -2.327,2.669 -2.342,2.584 -2.345,2.502 c -0.004,-0.143 0.032,-0.278 0.11,-0.411 0.12,-0.208 0.306,-0.353 0.561,-0.436 0.139,-0.045 0.273,-0.07 0.401,-0.072 0.03,-10e-4 0.061,0 0.092,0 0.148,0.009 0.304,0.045 0.472,0.113 L -1.437,3.44 C -1.676,3.372 -1.863,3.288 -1.998,3.19 m 1.392,2.519 C -0.718,5.652 -0.793,5.558 -0.839,5.419 -0.853,5.378 -0.859,5.337 -0.86,5.292 -0.862,5.24 -0.854,5.183 -0.838,5.122 c 0.028,-0.11 0.086,-0.261 0.171,-0.457 0.039,0.009 0.083,0.02 0.131,0.033 0.062,0.017 0.11,0.031 0.147,0.045 0.129,0.035 0.236,0.085 0.323,0.146 0.085,0.06 0.14,0.132 0.169,0.22 C 0.121,5.163 0.13,5.214 0.131,5.264 0.133,5.338 0.116,5.409 0.082,5.477 L 0.083,5.478 C 0.026,5.592 -0.072,5.671 -0.219,5.719 -0.286,5.742 -0.348,5.753 -0.404,5.754 -0.48,5.756 -0.546,5.742 -0.606,5.709"
         style="fill:#004899;fill-opacity:1;fill-rule:nonzero;stroke:none"
         id="path280"
         inkscape:connector-curvature="0" />
    </g>
    <g
       id="g282"
       transform="matrix(2.5672747,0,0,-2.5672747,59.37126,-196.4581)">
      <path
         d="M 0,0 0.019,0.029 0.049,0.011 0.019,0.029 0,0 -0.029,0.018 1.355,2.267 -0.432,3.368 -1.815,1.118 -2.939,1.812 0.404,7.243 1.528,6.55 0.176,4.355 1.963,3.255 3.314,5.45 4.438,4.757 1.095,-0.674 Z"
         style="fill:#004899;fill-opacity:1;fill-rule:nonzero;stroke:none"
         id="path284"
         inkscape:connector-curvature="0" />
    </g>
    <g
       id="g286"
       transform="matrix(2.5672747,0,0,-2.5672747,71.957084,-187.17303)">
      <path
         d="m 0,0 c -0.294,0.097 -0.576,0.262 -0.848,0.495 -0.273,0.231 -0.482,0.486 -0.625,0.763 -0.144,0.278 -0.23,0.582 -0.259,0.914 -0.004,0.057 -0.007,0.113 -0.007,0.168 0,0.331 0.077,0.635 0.23,0.911 0.178,0.319 0.49,0.742 0.941,1.268 0.449,0.526 0.818,0.904 1.107,1.13 0.293,0.23 0.637,0.359 1.029,0.387 0.064,0.004 0.127,0.007 0.19,0.007 0.262,0 0.513,-0.04 0.753,-0.121 C 2.807,5.823 3.091,5.657 3.362,5.425 3.634,5.193 3.843,4.939 3.983,4.664 4.126,4.389 4.211,4.085 4.239,3.754 4.246,3.682 4.249,3.61 4.249,3.541 4.249,3.222 4.176,2.931 4.029,2.668 3.851,2.353 3.536,1.931 3.083,1.4 2.633,0.874 2.267,0.499 1.983,0.273 1.697,0.046 1.349,-0.082 0.939,-0.111 0.874,-0.115 0.809,-0.117 0.745,-0.117 0.483,-0.117 0.235,-0.078 0,0 m -0.475,2.134 c 0,-0.132 0.033,-0.262 0.099,-0.394 0.067,-0.131 0.162,-0.251 0.287,-0.357 0.209,-0.179 0.428,-0.265 0.661,-0.265 0.045,0 0.091,0.003 0.139,0.009 0.094,0.011 0.179,0.033 0.259,0.07 0.081,0.036 0.168,0.092 0.263,0.167 0.095,0.074 0.209,0.184 0.345,0.329 0.134,0.142 0.301,0.331 0.501,0.564 0.202,0.239 0.364,0.434 0.484,0.587 0.119,0.154 0.207,0.283 0.267,0.389 0.059,0.105 0.1,0.201 0.122,0.285 0.02,0.073 0.03,0.149 0.03,0.227 V 3.786 C 2.978,4.075 2.853,4.323 2.604,4.536 2.479,4.643 2.347,4.719 2.206,4.763 2.109,4.793 2.017,4.809 1.926,4.809 1.882,4.809 1.84,4.806 1.797,4.798 1.712,4.788 1.63,4.765 1.55,4.729 1.47,4.693 1.381,4.637 1.284,4.559 1.187,4.482 1.073,4.374 0.942,4.235 0.812,4.095 0.643,3.904 0.435,3.662 0.229,3.419 0.067,3.223 -0.048,3.075 -0.164,2.926 -0.252,2.796 -0.315,2.686 -0.378,2.576 -0.422,2.48 -0.445,2.4 -0.466,2.332 -0.476,2.258 -0.476,2.18 c 0,-0.013 0,-0.026 0.001,-0.046"
         style="fill:#004899;fill-opacity:1;fill-rule:nonzero;stroke:none"
         id="path288"
         inkscape:connector-curvature="0" />
    </g>
    <g
       id="g290"
       transform="matrix(2.5672747,0,0,-2.5672747,79.322818,-179.36723)">
      <path
         d="M 0,0 3.37,5.82 4.277,4.793 2.089,1.183 5.944,2.9 6.856,1.867 0.675,-0.73 0.651,-0.74 Z m 0.661,-0.698 0.026,0.023 z"
         style="fill:#004899;fill-opacity:1;fill-rule:nonzero;stroke:none"
         id="path292"
         inkscape:connector-curvature="0" />
    </g>
    <g
       id="g294"
       transform="matrix(2.5672747,0,0,-2.5672747,86.044473,-171.30188)">
      <path
         d="M 0,0 0.028,0.019 0.048,-0.01 0.028,0.019 0,0 -0.021,0.029 5.311,3.532 7.668,-0.053 6.69,-0.694 5.06,1.787 3.882,1.013 5.271,-1.1 4.293,-1.741 2.905,0.372 1.683,-0.432 3.314,-2.913 2.337,-3.555 Z"
         style="fill:#004899;fill-opacity:1;fill-rule:nonzero;stroke:none"
         id="path296"
         inkscape:connector-curvature="0" />
    </g>
    <g
       id="g298"
       transform="matrix(2.5672747,0,0,-2.5672747,9.4675135,-213.20186)">
      <path
         d="M 0,0 V 0.034 L 0.029,0.054 0,0.034 V 0 H -0.019 L -2.5,3.79 V 0 h -1.32 v 6.38 h 1.168 L -0.17,2.598 V 6.38 H 1.15 V 0 Z"
         style="fill:#004899;fill-opacity:1;fill-rule:nonzero;stroke:none"
         id="path300"
         inkscape:connector-curvature="0" />
    </g>
    <g
       id="g302"
       transform="matrix(2.5672747,0,0,-2.5672747,55.124219,-103.70272)">
      <path
         d="M 0,0 C 0,0 0.428,-0.609 0.953,-0.609 1.48,-0.609 1.908,0 1.908,0 1.908,0 1.48,0.608 0.953,0.608 0.428,0.608 0,0 0,0"
         style="fill:#004899;fill-opacity:1;fill-rule:nonzero;stroke:none"
         id="path304"
         inkscape:connector-curvature="0" />
    </g>
    <g
       id="g306"
       transform="matrix(2.5672747,0,0,-2.5672747,121.49495,-125.89937)">
      <path
         d="m 0,0 c -0.634,0.339 -1.607,0.789 -3.004,1.375 -1.433,0.599 -4.402,1.546 -7.476,2.369 -4.289,15.688 -18.633,27.223 -35.681,27.223 -19.095,0 -34.805,-14.469 -36.78,-33.039 -1.879,-0.282 -3.677,-0.498 -5.236,-0.661 -3.09,-0.325 -5.235,-0.44 -5.24,-0.441 -0.114,-0.007 -0.207,-0.094 -0.219,-0.208 -0.001,-0.008 -0.002,-0.02 -0.002,-0.037 -0.008,-0.171 0.111,-0.879 1.282,-1.477 1.168,-0.604 3.376,-1.156 7.663,-1.157 0.482,0 1,0.01 1.536,0.024 0,-20.432 16.564,-36.996 36.996,-36.996 20.432,0 36.996,16.564 36.996,36.996 0,2.323 -0.226,4.592 -0.636,6.797 3.806,-0.839 8.589,-1.926 10.132,-1.929 0.165,0.001 0.297,0.011 0.408,0.043 0.1,0.024 0.248,0.108 0.251,0.28 C 0.932,-0.5 0.626,-0.366 0,0 m 0.331,-0.811 c -2.414,-0.005 -13.523,2.877 -15.103,2.885 -2.465,-0.015 -8.012,-3.062 -10.892,-4.933 -0.843,-0.551 -1.697,-1.042 -2.532,-1.48 0.216,-0.012 0.427,-0.031 0.636,-0.057 l 10e-4,0.001 c 1.748,-0.213 3.304,-0.887 4.564,-1.812 1.621,-1.204 3.292,-2.685 4.299,-2.883 0.048,-0.003 0.101,-0.007 0.158,-0.013 h 0.006 c 1.429,-0.135 5.529,-1.147 5.4,-3.572 0,0 -2.852,0.86 -6.272,0.274 -1.346,-0.286 -3.308,-0.471 -6.286,-1.416 -2.815,-0.888 -10.162,-3.672 -15.911,-3.676 -4.369,0.006 -13.203,2.52 -18.299,2.952 -0.305,0.026 -0.605,0.039 -0.905,0.039 -3.882,0.004 -7.212,-2.033 -8.879,-2.058 -1.502,0 -4.136,0.262 -6.717,2.175 -1.961,1.464 -3.417,3.61 -3.433,5.198 -0.003,0.532 0.181,1.024 0.596,1.348 0.294,0.223 0.703,0.269 1.244,0.274 1.998,-0.004 5.961,-0.871 10.658,-0.87 2.792,0 5.834,0.306 8.849,1.279 0.7,0.225 2.807,0.719 4.163,1.057 0.359,-0.244 0.737,-0.509 1.16,-0.801 0.041,-0.029 0.087,-0.042 0.133,-0.042 0.073,0 0.146,0.035 0.192,0.1 0.073,0.106 0.047,0.251 -0.059,0.324 -2.609,1.821 -3.852,2.83 -8.22,2.818 -2.783,0 -6.853,-0.386 -13.445,-1.176 -4.279,-0.513 -7.582,-0.711 -10.13,-0.711 -4.247,-0.002 -6.394,0.555 -7.448,1.105 -0.65,0.342 -0.887,0.661 -0.975,0.858 1.53,0.096 9.155,0.627 15.895,2.12 7.647,1.699 19.622,6.483 25.202,6.473 2.077,0.016 5.683,-2.13 9.257,-4.532 3.59,-2.401 7.176,-5.037 9.463,-5.997 0.118,-0.05 0.255,0.006 0.305,0.124 0.05,0.119 -0.007,0.256 -0.125,0.305 -1.31,0.547 -3.131,1.714 -5.152,3.079 2.774,1.31 12.385,7.084 19.266,7.079 3.276,0.007 12.956,-2.749 15.866,-3.975 1.39,-0.583 2.359,-1.03 2.973,-1.36 0.307,-0.165 0.526,-0.3 0.659,-0.403 0.041,-0.031 0.073,-0.06 0.098,-0.083 -0.061,-0.011 -0.15,-0.017 -0.26,-0.017"
         style="fill:#004899;fill-opacity:1;fill-rule:nonzero;stroke:none"
         id="path308"
         inkscape:connector-curvature="0" />
    </g>
    <g
       id="g310"
       transform="matrix(2.5672747,0,0,-2.5672747,71.6788,-94.063116)">
      <path
         d="M 0,0 C 3.42,0.586 6.272,-0.274 6.272,-0.274 6.406,2.25 1.957,3.245 0.708,3.311 c 0,0 0.644,-1.341 -2.832,-1.606 0,0 -1.624,0.042 -2.289,-0.558 0,0 3.202,0.244 4.325,-1.005 z"
         style="fill:#f9b000;fill-opacity:1;fill-rule:nonzero;stroke:none"
         id="path312"
         inkscape:connector-curvature="0" />
    </g>
  </g>
</svg>
