<?xml version="1.0" encoding="UTF-8" standalone="no"?>
<svg
   xmlns:dc="http://purl.org/dc/elements/1.1/"
   xmlns:cc="http://creativecommons.org/ns#"
   xmlns:rdf="http://www.w3.org/1999/02/22-rdf-syntax-ns#"
   xmlns:svg="http://www.w3.org/2000/svg"
   xmlns="http://www.w3.org/2000/svg"
   xmlns:sodipodi="http://sodipodi.sourceforge.net/DTD/sodipodi-0.dtd"
   xmlns:inkscape="http://www.inkscape.org/namespaces/inkscape"
   version="1.1"
   id="Layer_1"
   x="0px"
   y="0px"
   width="158.89896"
   height="286.272"
   viewBox="0 0 158.89896 286.27199"
   enable-background="new 0 0 159 274.661"
   xml:space="preserve"
   inkscape:version="0.48.3.1 r9886"
   sodipodi:docname="Liverpool-FC-logo-2012.svg"><metadata
   id="metadata22"><rdf:RDF><cc:Work
       rdf:about=""><dc:format>image/svg+xml</dc:format><dc:type
         rdf:resource="http://purl.org/dc/dcmitype/StillImage" /></cc:Work></rdf:RDF></metadata><defs
   id="defs20" /><sodipodi:namedview
   pagecolor="#ffffff"
   bordercolor="#666666"
   borderopacity="1"
   objecttolerance="10"
   gridtolerance="10"
   guidetolerance="10"
   inkscape:pageopacity="0"
   inkscape:pageshadow="2"
   inkscape:window-width="640"
   inkscape:window-height="480"
   id="namedview18"
   showgrid="false"
   fit-margin-top="5"
   fit-margin-left="5"
   fit-margin-right="5"
   fit-margin-bottom="5"
   inkscape:zoom="0.85924099"
   inkscape:cx="81.264"
   inkscape:cy="143.94149"
   inkscape:window-x="0"
   inkscape:window-y="0"
   inkscape:window-maximized="0"
   inkscape:current-layer="Layer_1" />
<path
   id="path257_1_"
   d="m 144.95,4.9999901 c -0.297,0.082 -0.334,0.425 -0.414,0.688 0.164,2.316 -0.42,4.251 -0.629,6.2439999 -0.369,2.694 -1.361,5.26 -2.029,7.877 -3.399,11.151 -8.75,21.384 -16.209,30.883 -9.053,12.165 -21.375,20.881 -33.776,29.386 -1.92,1.309 -3.852,2.621 -5.752,3.938 -3.4,2.651 -6.957,5.267 -9.081,9.119 -1.397,2.613 -2.53,5.599 -3.563,8.371 -1.015,3.311 -2.528,6.779 -4.787,9.552 -1.889,2.337 -4.297,4.192 -7.367,5.082 -0.616,-0.043 -1.57,0.453 -1.988,-0.256 -0.121,-0.409 0.072,-0.739 0.374,-0.986 1.977,-0.841 3.574,-2.199 4.825,-3.84 1.102,-1.442 1.933,-3.116 2.521,-4.826 2.028,-6.048 3.446,-12.391 6.597,-17.98 1.573,-3.002 3.506,-5.687 5.673,-8.174 5.065,-5.825 11.355,-10.564 17.193,-15.677 1.535,-1.074 2.998,-2.562 4.49,-3.724 7.051,-6.31 13.721,-13.459 18.494,-21.546 1.822,-3.323 3.395,-6.81 3.84,-10.616 0.797,-4.438 0.127,-9.519 -3.623,-11.937 -1.293,-0.835 -2.572,-2.119 -4.195,-1.909 -0.325,0.078 -0.488,0.373 -0.373,0.709 2.029,2.893 2.57,7.167 1.535,10.557 -2.407,8.624 -7.461,16.221 -13.353,23.18 -7.63,9.5 -17.717,16.582 -26.63,24.916 -1.165,1.244 -2.621,2.348 -3.525,3.762 -0.7,0.732 -1.353,1.497 -1.95,2.285 -2.444,3.209 -4.155,6.86 -5.515,10.519 -1.661,5.015 -2.723,10.242 -4.097,15.342 -0.198,1.242 -0.901,2.241 -1.319,3.368 -0.442,0.645 -1.005,1.446 -1.733,1.752 -0.297,0.131 -0.611,0.176 -0.965,0.098 -0.083,-0.034 -0.173,-0.06 -0.256,-0.098 -1.092,-0.559 -1.712,-1.793 -1.95,-2.915 -2.239,-9.995 2.529,-18.906 8.667,-26.195 0.514,-0.633 1.052,-1.254 1.576,-1.872 3.71,-4.269 7.72,-8.317 10.614,-13.019 2.118,-3.521 2.858,-8.572 0.493,-12.093 -0.704,-1.618 -2.23,-2.777 -3.722,-3.485 -0.121,-0.166 -0.121,-0.373 0,-0.534 1.323,-0.339 2.518,0.271 3.762,0.316 2.996,0.373 6.265,-0.079 8.921,-1.162 1.743,-0.866 3.7,-2.145 4.194,-4.137 0.134,-0.698 0.492,-1.745 -0.295,-2.284 -0.627,-0.249 -0.456,0.579 -0.749,0.828 -1.367,1.441 -3.483,2.027 -5.515,2.027 -4.933,-0.5 -9.402,-2.014 -13.925,-3.505 -3.273,-0.997 -6.442,-2.126 -9.808,-2.757 -3.56,-0.365 -8.403,-1.239 -10.774,2.128 -0.494,0.825 -0.279,1.732 0.139,2.56 -1.991,0.208 -4.078,0.125 -6.146,0.335 -0.494,-1.491 -0.95,-2.945 -1.615,-4.313 -1.165,0.245 -2.282,0.662 -3.564,0.491 0.996,1.283 1.782,2.69 2.029,4.275 -2.866,0.863 -6.06,1.876 -7.761,4.489 -0.33,0.87 -1.07,1.688 -0.866,2.639 2.778,-1.199 5.688,-2.153 8.921,-2.324 l 0.158,0.139 c 0,1.569 -0.41,3.231 -0.906,4.728 -1.321,0.363 -2.656,0.144 -3.938,0.275 0.078,0.208 -0.215,0.422 -0.139,0.669 0.209,1.482 2.051,1.364 2.836,2.029 -0.785,1.575 -1.789,3.247 -3.033,4.53 -1.199,-1.116 -2.809,-2.065 -4.471,-1.99 -3.196,-0.286 -5.603,2.147 -8.469,2.935 -0.666,0.253 -1.411,-0.218 -1.99,-0.333 -0.248,0.781 0.301,1.607 0.965,2.108 0.535,0.208 0.984,0.746 1.557,0.629 0.787,0.408 1.924,0.373 2.915,0.335 2.2,-0.214 3.809,-1.777 5.85,-2.482 0.864,-0.131 1.784,-0.716 2.659,-0.177 -0.165,0.588 -0.882,0.921 -1.339,1.38 -2.774,2.027 -6.225,2.972 -8.055,6.165 -0.456,1.243 -0.496,2.735 0.039,3.978 0.917,1.452 2.515,2.277 4.215,2.029 0,-0.21 -0.139,-0.377 -0.216,-0.532 -0.709,-2.276 1.737,-3.771 3.15,-5.102 0.995,-1.112 1.704,-2.777 0.946,-4.273 0.957,-0.787 1.866,-1.518 2.895,-2.265 0.588,1.49 1.378,2.901 2.659,4.096 1.491,1.282 3.798,1.819 5.653,0.944 2.238,-0.995 4.483,-3.31 4.313,-5.928 -1.082,1.121 -2.497,1.914 -4.076,2.207 -0.671,-0.787 -1.243,-1.241 -2.029,-1.95 -1.376,-1.036 -3.186,-1.371 -4.924,-1.044 1.49,-1.739 2.601,-3.593 3.723,-5.535 2.617,-0.257 5.22,-0.802 7.838,-1.418 3.273,-0.671 7.218,-0.494 9.336,2.324 0.418,0.456 0.737,1.123 1.064,1.832 1.413,4.016 -1.067,7.701 -3.763,10.557 -3.074,3.122 -6.473,5.917 -9.926,8.666 -7.309,5.816 -14.878,11.414 -20.149,19.361 -1.325,1.739 -2.518,3.808 -3.387,5.969 -0.942,1.757 -1.716,3.661 -2.325,5.651 -1.482,4.903 -1.934,10.308 -1.222,15.481 0.512,3.656 1.591,7.188 3.289,10.321 0.877,1.829 1.958,3.546 3.212,5.16 5.202,6.74 13.271,11.641 20.758,14.614 8.504,3.521 17.381,5.854 26.59,6.973 l 0.158,0.158 c 1.146,2.875 1.908,6.047 2.108,9.235 0.189,2.981 -0.126,5.998 -1.064,8.843 -0.131,0.326 -0.417,0.706 -0.295,1.123 1.408,-0.505 2.825,-1.506 3.859,-2.541 0.788,-0.539 1.167,-1.363 1.832,-2.027 0.161,-0.041 0.233,0.046 0.314,0.178 1.211,8.751 3.255,17.273 6.422,25.387 0.724,1.885 1.528,3.743 2.384,5.574 0.455,1.452 1.854,2.559 1.477,4.138 -0.286,0.368 -0.74,0.869 -1.28,0.827 -0.625,-0.039 -1.332,-0.066 -1.871,-0.236 -1.699,-0.457 -3.352,-1.258 -5.004,-1.713 -2.485,-0.408 -6.055,-1.826 -8.133,0.452 -0.331,0.626 -0.327,1.411 -0.041,2.067 -0.743,0.17 -1.576,-0.029 -2.402,0.061 -1.793,-0.05 -3.311,1.023 -4.098,2.559 -0.247,0.746 -0.258,1.886 0.198,2.541 0.287,0.496 0.82,0.789 1.359,0.828 0.166,-0.133 0.216,-0.342 0.256,-0.59 1.084,-2.07 3.536,-2.395 5.731,-2.443 0.161,0.05 0.355,0.203 0.276,0.414 -0.626,0.537 -1.395,0.826 -1.89,1.496 -0.616,0.873 -0.972,1.901 -0.434,2.975 0.457,0.875 1.33,1.537 2.403,1.537 0.399,0.011 0.392,0.17 0.551,0 -0.12,-0.783 0.369,-1.615 0.985,-2.246 2.651,-2.068 6.015,-2.473 9.415,-2.797 6.31,-0.54 13.582,-0.682 19.694,0.609 1.396,0.289 1.354,0.375 2.049,0.711 0.904,0.418 1.822,1.15 2.146,2.146 0.502,0.078 0.959,-0.205 1.34,-0.452 1.359,-1.078 2.645,-2.515 2.266,-4.295 -0.131,-0.5 -0.361,-0.811 -0.867,-1.338 -2.12,-1.65 -5.15,-1.613 -7.723,-1.398 0,0 -0.08,0 -0.373,0 -2.106,0.076 -4.266,0.043 -5.967,-1.123 -2.24,-1.738 -2.572,-4.649 -3.724,-6.973 -0.329,-1.104 -0.644,-2.221 -0.944,-3.329 -2.098,-7.804 -3.5,-15.756 -4.116,-23.948 0,-0.172 -0.013,-0.412 0.197,-0.336 1.99,1.491 4.188,2.408 6.637,2.777 1.205,0.169 2.66,0.209 3.445,-0.75 -1.125,-1.034 -2.56,-1.926 -3.644,-3.013 -1.606,-1.698 -2.953,-3.634 -4.019,-5.691 -2.806,-5.458 -3.665,-11.937 -2.461,-18.101 -2.572,-2.067 -4.809,-4.067 -7.169,-6.223 -2.166,-2.133 -4.355,-4.332 -6.362,-6.658 -3.992,-4.575 -7.309,-9.615 -8.527,-15.48 -0.112,-0.53 -0.204,-1.076 -0.277,-1.616 0.04,-0.875 -0.393,-2.035 0.315,-2.778 0.117,-0.039 0.395,-0.091 0.473,0.041 0.515,1.462 1.069,2.92 1.695,4.353 0.738,1.699 1.559,3.37 2.482,4.982 2.125,3.948 5.112,7.313 8.351,10.497 5.187,5.08 11.047,9.679 15.245,15.363 1.62,2.116 2.776,4.508 3.819,6.952 0.871,2.726 1.479,5.693 1.597,8.667 0.059,1.413 10e-4,2.828 -0.179,4.234 0.162,0.203 0.326,0.418 0.61,0.334 0.709,-0.458 0.782,-1.245 1.084,-1.949 0.239,-0.875 0.427,-1.747 0.57,-2.619 1.424,-8.266 -0.946,-16.529 -5.711,-23.202 -2.278,-2.905 -4.89,-5.425 -7.583,-7.78 -5.678,-4.992 -11.773,-9.347 -16.091,-15.48 -0.601,-0.875 -1.173,-1.787 -1.714,-2.738 -0.248,-0.617 -0.86,-1.443 -0.158,-2.067 0.172,-0.045 0.402,-0.083 0.572,0.04 l 2.166,2.324 c 0.875,0.854 1.792,1.656 2.719,2.443 6.144,5.141 13.329,8.671 21.784,8.409 4.944,-0.656 9.379,-3.195 12.938,-6.716 l 0.118,-0.493 c -0.077,-0.208 -0.243,-0.335 -0.413,-0.373 -4.128,0.159 -8.112,-0.144 -11.955,-0.827 -2.942,-0.531 -5.795,-1.271 -8.567,-2.188 -2.525,-0.991 -5.06,-1.878 -7.347,-3.408 -0.04,-0.208 -0.032,-0.486 0.098,-0.649 4.804,-0.172 10.063,-1.825 12.763,-6.263 -0.042,-0.288 0.2,-0.757 -0.216,-0.887 -3.818,0.292 -7.949,0.343 -11.641,-0.452 -0.286,0 -0.375,-0.248 -0.375,-0.493 0.044,-0.162 0.258,-0.258 0.375,-0.375 1.872,-0.112 3.698,-0.343 5.456,-0.768 2.979,-0.729 5.765,-1.983 8.19,-3.958 0.75,-0.59 0.953,-1.491 1.656,-2.029 0.379,-0.752 0.987,-1.489 0.569,-2.403 -4.229,0.705 -8.379,1.78 -12.564,1.99 -1.036,0.038 -2.314,0.092 -3.35,-0.079 -0.209,-0.248 -0.013,-0.548 0.157,-0.708 2.404,-0.667 4.854,-1.085 7.13,-1.99 3.235,-1.206 6.483,-2.452 8.843,-5.279 0.535,-1.153 1.658,-2.265 1.163,-3.624 -0.214,-0.209 -0.42,-0.393 -0.749,-0.314 -4.642,1.953 -9.529,3.458 -14.634,4.332 -0.666,-0.038 -1.37,0.445 -1.871,-0.138 -0.325,-0.33 0.29,-0.245 0.197,-0.532 5.353,-1.821 10.711,-3.564 15.067,-7.504 1.528,-1.66 2.849,-3.848 2.441,-6.124 -0.131,-0.327 -0.411,-0.68 -0.829,-0.632 -3.729,1.782 -7.461,3.522 -11.442,4.768 -0.494,0 -0.956,0.535 -1.458,0.119 -0.125,-0.161 -0.131,-0.441 0.04,-0.572 3.113,-2.18 6.283,-4.232 9.455,-6.301 2.996,-1.954 5.996,-3.911 8.922,-6.007 2.029,-1.535 4.137,-3.233 6.203,-4.767 9.422,-7.417 17.896,-16.709 24.777,-26.786 0.912,-1.321 1.682,-2.726 2.639,-4.019 3.609,-6.633 7.549,-13.315 8.963,-20.857 0.535,-4.226 -0.865,-8.5839999 -3.684,-11.8559999 -0.369,-0.335 -0.691,-0.753 -1.23,-0.791 z m 7.662,16.4049999 c -0.142,-0.004 -0.289,0.034 -0.375,0.139 -0.742,1.821 -1.357,3.698 -2.106,5.476 -3.491,7.172 -7.304,14.345 -12.448,20.64 -3.729,5.23 -8.574,9.573 -12.723,14.338 -0.043,0.169 -0.133,0.465 0,0.63 0.209,0.251 0.578,0.158 0.787,0.158 l 2.029,-1.616 c 8.741,-7.458 17.121,-15.293 23.633,-24.954 2.07,-3.153 2.813,-7.134 2.364,-11.07 -0.252,-1.203 -0.2,-2.531 -0.827,-3.564 -0.06,-0.123 -0.194,-0.172 -0.334,-0.177 z m -25.33,2.167 c -0.248,0.007 -0.479,0.146 -0.551,0.335 0,0.951 0.141,1.858 0.141,2.816 -0.957,7.46 -4.5,14.26 -8.883,20.229 -9.463,13.436 -23.668,21.921 -35.119,33.324 -0.655,0.874 -1.754,1.499 -1.832,2.659 0.117,0.13 0.216,0.287 0.414,0.414 0.336,0.082 0.527,0.008 0.907,-0.079 3.361,-2.857 6.729,-5.433 10.417,-7.956 2.857,-2.07 5.725,-4.056 8.627,-6.048 10.117,-7.547 19.564,-16.425 25.703,-27.692 2.817,-4.608 4.645,-11.314 1.575,-16.327 -0.33,-0.589 -0.694,-1.18 -1.142,-1.634 -0.086,-0.031 -0.171,-0.043 -0.257,-0.041 z m 23.104,18.159 c -0.192,0.027 -0.39,0.123 -0.513,0.296 -11.907,15.652 -28.037,28.285 -44.434,38.052 -0.228,0.135 -0.439,0.275 -0.67,0.413 0.077,0.46 0.324,0.921 0.532,1.378 0.744,2.153 0.317,4.685 -1.005,6.462 -0.086,0.168 -0.047,0.324 0.078,0.412 4.766,-2.671 9.498,-5.554 14.063,-8.665 8.446,-5.771 16.357,-12.369 23.144,-20.149 3.609,-4.434 6.599,-8.999 8.705,-14.102 0.379,-1.161 0.867,-2.313 0.828,-3.604 -0.082,-0.387 -0.405,-0.539 -0.728,-0.493 z m -96.41,4.273 c 0.296,-0.014 0.656,0.12 0.945,0.12 2.327,0.416 4.675,0.786 6.874,1.456 0.126,0.079 0.04,0.253 0,0.376 -2.108,0.255 -3.982,1.04 -6.105,1.2 -0.618,0 -1.195,-0.084 -1.694,-0.452 -0.656,-0.628 -0.692,-1.656 -0.454,-2.443 0.098,-0.172 0.258,-0.247 0.434,-0.257 z m -10.674,4.413 c 4.167,-0.013 6.224,0.155 6.224,1.458 0,1.8 -3.819,2.764 -7.188,3.25 0.199,-0.568 0.51,-1.571 0.709,-2.601 0.15,-0.807 0.201,-0.975 0.255,-2.107 z m 97.235,15.027 c -0.103,0.015 -0.211,0.038 -0.295,0.079 -5.041,5.436 -10.599,10.278 -16.523,14.556 -6.008,4.312 -12.383,8.054 -18.948,11.227 0.71,2.239 0.318,4.729 -0.925,6.756 -0.292,0.499 -0.825,0.881 -0.945,1.418 0.12,0.248 0.362,0.039 0.57,0.039 10.611,-4.613 21.15,-10.688 29.443,-19.439 1.246,-1.317 2.435,-2.664 3.565,-4.096 2.2,-3.114 4.472,-6.316 4.767,-10.125 -0.065,-0.372 -0.398,-0.462 -0.709,-0.415 z m -6.912,18.77 c -1.948,1.287 -3.145,2.951 -5.141,4.195 -2.449,1.907 -4.935,3.566 -7.505,5.18 -5.638,3.229 -11.452,6.105 -17.588,8.134 0.204,3.065 -0.88,6.035 -3.328,8.076 0.056,0.248 -0.354,0.164 -0.354,0.374 0,0.087 0,0.198 0.08,0.276 5.182,-0.943 10.031,-3.054 14.81,-5.495 6.425,-3.862 12.712,-8.379 17.117,-14.674 1.155,-1.701 2.2,-3.373 2.58,-5.476 -0.025,-0.457 -0.292,-0.631 -0.671,-0.59 z m -84.71,5.929 c 0.199,0 0.404,0.007 0.491,0.217 v 0.414 c -1.373,2.03 -2.489,4.063 -3.485,6.302 -1.947,4.387 -3.326,9.189 -3.505,13.983 -0.03,1.005 -0.014,2.009 0.059,3.013 0.238,4.453 1.239,8.587 2.875,12.469 0.987,2.297 2.201,4.504 3.605,6.635 0.496,0.577 0.821,1.327 1.398,1.773 2.007,2.704 4.464,5.021 7.071,7.07 1.442,1.132 2.93,2.186 4.412,3.171 0.339,0.288 0.988,0.547 0.906,1.005 -0.743,0.494 -1.557,-0.248 -2.304,-0.413 -2.866,-0.907 -5.675,-2.185 -8.313,-3.763 -3.969,-2.389 -7.55,-5.512 -10.32,-9.336 -1.388,-1.87 -2.543,-3.951 -3.447,-6.143 -1.991,-4.834 -2.746,-10.281 -2.048,-15.482 0.314,-2.327 0.914,-4.615 1.851,-6.774 1.282,-2.943 2.948,-5.847 4.846,-8.371 1.792,-2.039 3.538,-4.187 5.908,-5.77 z m 78.074,10.832 c -1.244,0.539 -2.231,1.605 -3.35,2.305 -5.161,3.33 -10.646,5.986 -16.466,7.779 -2.515,0.768 -5.082,1.405 -7.722,1.851 l -0.039,0.455 c 0.406,3.812 -3.039,6.712 -6.066,8.291 v 0.237 l 0.553,0.098 c 2.486,-0.209 4.883,-0.83 7.209,-1.378 6.262,-2.07 12.362,-4.773 17.627,-9.12 0.194,-0.145 0.383,-0.283 0.571,-0.433 2.704,-2.098 5.298,-4.741 7.347,-7.564 0.209,-0.709 1.008,-1.32 0.887,-2.106 -0.13,-0.166 -0.299,-0.453 -0.551,-0.415 z m -9.554,15.58 c -6.006,3.399 -12.31,6.04 -19.36,6.914 -0.039,0.13 -0.119,0.302 0,0.433 1.33,0.248 2.664,0.534 4.078,0.611 3.516,0.208 6.995,0.322 10.397,-0.255 1.622,-1.661 3.026,-3.507 4.354,-5.377 0.248,-0.699 1.096,-1.28 0.926,-2.106 -0.039,-0.174 -0.263,-0.182 -0.395,-0.22 z m -33.699,16.662 c -0.17,0.13 -0.195,0.332 -0.118,0.532 3.362,3.069 6.859,5.615 10.32,8.272 5.25,4.025 10.402,8.308 14.852,15.026 2.896,4.376 4.604,6.904 6.342,11.858 0.486,1.394 0.918,2.766 1.281,4.098 2.049,7.526 2.037,14.142 -0.041,21.152 0,0.616 -0.543,1.036 -0.217,1.653 0.875,0.209 1.219,-0.824 1.674,-1.317 2.277,-3.774 4.471,-7.709 5.752,-11.976 1.016,-3.064 1.588,-6.279 1.713,-9.514 0.332,-8.165 -2.18,-16.426 -7.799,-22.454 -3.233,-3.822 -7.147,-6.449 -11.344,-8.528 -6.057,-2.986 -12.73,-4.802 -18.929,-7.347 -1.198,-0.406 -2.241,-1.248 -3.486,-1.455 z m -35.176,26.687 c -0.16,4.363 -0.879,8.81 -2.167,13.098 -0.665,2.238 -1.47,4.426 -2.422,6.559 3.666,0 6.674,-2.486 9.236,-4.608 -0.989,4.108 -2.399,7.3 -4.313,11.817 -2.914,6.91 -5.849,11.991 -9.021,17.192 -1.072,1.772 -2.187,3.576 -3.328,5.455 -0.748,1.282 -1.661,2.798 -3.191,3.508 -4.268,1.149 -7.315,-2.276 -11.463,-1.911 -1.957,0.34 -2.6,0.715 -3.271,1.418 -0.374,0.577 -0.327,1.299 -0.079,1.911 -2.326,-0.196 -4.845,-0.198 -6.677,1.162 -0.785,0.747 -1.156,1.86 -0.827,2.974 0.249,0.709 0.71,1.309 1.537,1.615 0.995,-1.91 3.032,-2.779 5.061,-3.271 0.875,-0.127 1.786,-0.302 2.62,0.04 0.199,0.115 0.027,0.381 -0.137,0.513 -0.826,0.418 -1.738,0.892 -2.404,1.635 -0.654,0.874 -1.245,1.966 -0.906,3.091 0.597,1.435 2.078,1.983 3.485,1.813 0.121,-0.172 -0.04,-0.322 -0.04,-0.492 -0.17,-1.569 1.396,-2.407 2.6,-3.073 3.979,-1.375 8.506,-1.375 12.862,-1.496 3.599,-0.209 7.243,0.043 10.852,0.295 2.122,0.248 4.248,0.619 5.87,1.951 0.365,0.368 0.445,1.039 0.198,1.495 0.535,0.161 1.04,-0.182 1.497,-0.433 0.078,-0.078 0.125,-0.096 0.315,-0.276 1.243,-0.995 1.673,-2.375 1.673,-3.821 -0.039,-1.405 -1.384,-2.357 -2.501,-2.775 -0.248,-0.098 -0.304,-0.129 -0.57,-0.219 -2.739,-0.826 -5.764,-0.473 -8.706,-0.432 -0.84,-0.134 -1.922,0.026 -2.285,-0.887 -0.17,-0.541 0.087,-1.148 0.334,-1.596 1.9,-2.754 3.874,-5.482 5.85,-8.194 3.244,-4.433 6.522,-8.836 9.533,-13.332 2.358,-3.532 3.897,-7.868 4.018,-12.015 1.66,1.66 3.648,3.023 5.81,3.898 0.535,0.121 1.199,0.283 1.694,0.118 -1.928,-2.903 -3.23,-6.179 -4.038,-9.63 -0.583,-2.557 -0.916,-5.212 -0.983,-7.88 -1.118,-0.326 -2.345,-0.362 -3.468,-0.647 -4.265,-0.995 -8.387,-2.703 -12.248,-4.57 z"
   inkscape:connector-curvature="0"
   style="fill:#d1202a" />
<g
   enable-background="new    "
   id="g4"
   transform="translate(1.7640001,4.9999901)">
	<path
   d="m 3.236,225.727 h 10.401 c -1.329,3.64 -1.502,5.32 -1.502,11.69 v 31.224 h 3.756 c 7.107,0 8.667,-0.28 14.157,-3.15 l -2.601,9.171 H 3.352 C 4.681,271.161 4.97,269.901 4.97,264.44 v -27.022 c 0,-6.441 -0.289,-8.121 -1.734,-11.691 z"
   id="path6"
   inkscape:connector-curvature="0"
   style="fill:#d1202a" />
	<path
   d="m 35.591,271.931 c 0,-2.38 1.56,-4.341 3.525,-4.341 1.964,0 3.583,1.961 3.583,4.341 0,2.38 -1.618,4.341 -3.583,4.341 -1.965,-10e-4 -3.525,-1.961 -3.525,-4.341 z"
   id="path8"
   inkscape:connector-curvature="0"
   style="fill:#d1202a" />
	<path
   d="m 49.919,225.727 h 23.923 l 0.289,8.051 c -3.005,-2.031 -4.796,-2.66 -9.766,-2.66 h -5.258 v 14.771 h 3.12 c 4.334,0 5.258,0.069 7.917,-1.681 0,0 0,9.731 0,9.312 -2.889,-1.33 -4.045,-1.82 -7.859,-1.82 h -3.178 v 11.83 c 0,4.48 0.289,8.682 1.618,11.132 h -10.17 c 1.271,-3.011 1.618,-6.021 1.618,-11.201 v -25.553 c 0,-6.231 -0.462,-8.611 -2.254,-12.181 z"
   id="path10"
   inkscape:connector-curvature="0"
   style="fill:#d1202a" />
	<path
   d="m 73.955,271.931 c 0,-2.38 1.56,-4.341 3.525,-4.341 1.965,0 3.583,1.961 3.583,4.341 0,2.38 -1.618,4.341 -3.583,4.341 -1.965,0 -3.525,-1.961 -3.525,-4.341 z"
   id="path12"
   inkscape:connector-curvature="0"
   style="fill:#d1202a" />
	<path
   d="m 122.665,226.146 v 9.591 c -1.098,-1.54 -5.259,-5.812 -11.673,-5.812 -10.285,0 -15.14,9.172 -15.14,20.093 0,11.201 5.027,20.722 15.949,20.722 5.432,0 9.13,-2.939 11.73,-5.109 l -1.85,9.1 c -3.12,0.841 -6.588,1.541 -9.766,1.541 -15.718,0 -23.923,-11.691 -23.923,-26.113 0,-15.051 9.65,-26.043 23.691,-26.043 3.701,-0.001 7.573,0.56 10.982,2.03 z"
   id="path14"
   inkscape:connector-curvature="0"
   style="fill:#d1202a" />
	<path
   d="m 130.461,271.931 c 0,-2.38 1.56,-4.341 3.524,-4.341 1.964,0 3.583,1.961 3.583,4.341 0,2.38 -1.618,4.341 -3.583,4.341 -1.965,0 -3.524,-1.961 -3.524,-4.341 z"
   id="path16"
   inkscape:connector-curvature="0"
   style="fill:#d1202a" />
</g>
</svg>